<?xml version="1.0" encoding="UTF-8" standalone="no"?>
<!-- Created with Inkscape (http://www.inkscape.org/) -->

<svg
   width="170mm"
   height="170mm"
   viewBox="0 0 170 170"
   version="1.1"
   id="svg6991"
   inkscape:version="1.1.1 (3bf5ae0d25, 2021-09-20)"
   sodipodi:docname="SignalTrader_round.svg"
   xmlns:inkscape="http://www.inkscape.org/namespaces/inkscape"
   xmlns:sodipodi="http://sodipodi.sourceforge.net/DTD/sodipodi-0.dtd"
   xmlns="http://www.w3.org/2000/svg"
   xmlns:svg="http://www.w3.org/2000/svg">
  <sodipodi:namedview
     id="namedview6993"
     pagecolor="#505050"
     bordercolor="#eeeeee"
     borderopacity="1"
     inkscape:pageshadow="0"
     inkscape:pageopacity="0"
     inkscape:pagecheckerboard="0"
     inkscape:document-units="mm"
     showgrid="false"
     width="170mm"
     inkscape:zoom="1.0356019"
     inkscape:cx="415.70027"
     inkscape:cy="-443.2205"
     inkscape:window-width="1920"
     inkscape:window-height="1002"
     inkscape:window-x="-8"
     inkscape:window-y="-8"
     inkscape:window-maximized="1"
     inkscape:current-layer="layer1" />
  <defs
     id="defs6988" />
  <g
     inkscape:label="Ebene 1"
     inkscape:groupmode="layer"
     id="layer1">
    <g
       id="g7342"
       transform="translate(-20,-63.5)">
      <circle
         style="fill:#ffffff;stroke-width:6.90827"
         id="path7187"
         cx="105"
         cy="148.5"
         r="85" />
      <g
         id="g6922"
         transform="translate(-4.1167879,74.069343)">
        <g
           id="010---Surprised-Bot"
           fill-rule="nonzero"
           style="fill:none"
           transform="matrix(2.3356322,0,0,2.3356322,41.383454,6.6942192)">
          <path
             id="Shape"
             d="M 45.89,47.5 C 45.136521,45.059441 43.80556,42.836597 42.01,41.02 H 42 L 38.77,33.3 c 5.723334,2.415109 10.108915,7.206018 12.01,13.12 z"
             fill="#94a4a4" />
          <path
             id="path825"
             d="m 16,41.02 c -1.79556,1.816597 -3.126521,4.039441 -3.88,6.48 L 7.23,46.42 C 9.1310849,40.506018 13.516666,35.715109 19.24,33.3 Z"
             fill="#94a4a4" />
          <path
             id="path827"
             d="m 33.57,53.46 -0.07,0.57 c -0.283608,2.269515 -2.212833,3.972661 -4.5,3.972661 -2.287167,0 -4.216392,-1.703146 -4.5,-3.972661 l -0.07,-0.57 z"
             fill="#464f5d"
             style="fill:#313131;fill-opacity:1" />
          <path
             id="Rectangle-path"
             d="M 21,25 H 37 V 35 H 21 Z"
             fill="#b08f46"
             style="fill:#1f1f1f;fill-opacity:1" />
          <path
             id="path830"
             d="M 6,10 V 22 C 2.6862915,22 9e-8,19.313708 9e-8,16 9e-8,12.686291 2.6862915,10 6,10 Z"
             fill="#65dcb8"
             style="fill:#51605b;fill-opacity:1" />
          <path
             id="path832"
             d="M 12,7 V 25 H 9 C 7.3431457,25 6,23.656854 6,22 V 10 C 6,8.3431458 7.3431457,7 9,7 Z"
             fill="#94a4a4" />
          <path
             id="path834"
             d="m 58,16 c 0,3.313708 -2.686292,6 -6,6 V 10 c 3.313708,0 6,2.686291 6,6 z"
             fill="#65dcb8"
             style="fill:#51605b;fill-opacity:1" />
          <path
             id="path836"
             d="m 52,10 v 12 c 0,1.656854 -1.343146,3 -3,3 H 46 V 7 h 3 c 1.656854,0 3,1.3431458 3,3 z"
             fill="#94a4a4" />
          <rect
             id="rect838"
             fill="#f2d45b"
             height="24"
             rx="3"
             width="34"
             x="12"
             y="4"
             style="fill:#313131;fill-opacity:1" />
          <path
             id="path840"
             d="M 34,4 H 23.979997 C 23.978671,2.9387272 24.399671,1.9205391 25.150105,1.1701053 25.900539,0.41967146 26.918727,-0.00132908 27.98,0 H 30 c 2.209139,0 4,1.790861 4,4 z"
             fill="#bcc2c6" />
          <circle
             id="Oval"
             cx="21"
             cy="13"
             fill="#65dcb8"
             r="5"
             style="fill:#51605b;fill-opacity:1" />
          <circle
             id="circle843"
             cx="37"
             cy="13"
             fill="#65dcb8"
             r="5"
             style="fill:#51605b;fill-opacity:1" />
          <path
             id="path845"
             d="m 30,23 h -2 c -0.552285,0 -1,-0.447715 -1,-1 0,-0.552285 0.447715,-1 1,-1 h 2 c 0.552285,0 1,0.447715 1,1 0,0.552285 -0.447715,1 -1,1 z"
             fill="#b08f46"
             style="fill:#1f1f1f;fill-opacity:1" />
          <path
             id="path847"
             d="m 42,41.02 v 1.34 c 0.0035,3.183656 -1.259718,6.23791 -3.510904,8.489096 C 36.23791,53.100282 33.183656,54.363455 30,54.36 H 28 C 24.816344,54.3635 21.76209,53.100282 19.510904,50.849096 17.259718,48.59791 15.996545,45.543656 16,42.36 v -1.34 c -0.0049,-2.800185 1.171521,-5.472553 3.24,-7.36 0.531612,-0.503301 1.122645,-0.939859 1.76,-1.3 h 16 c 0.636682,0.365896 1.230383,0.801947 1.77,1.3 2.062201,1.891071 3.234362,4.562 3.23,7.36 z"
             fill="#f2d45b"
             style="fill:#51605b;fill-opacity:1" />
          <path
             id="path849"
             d="m 13,50 c 0.0035,1.974953 -1.434937,3.656857 -3.3865288,3.959749 C 7.6618799,54.26264 5.7813271,53.09585 5.1860386,51.212745 4.5907501,49.329641 5.458923,47.293921 7.23,46.42 c 1.6804752,-0.840284 3.719748,-0.389893 4.89,1.08 0.568911,0.709116 0.879291,1.590877 0.88,2.5 z"
             fill="#efc319"
             style="fill:#313131;fill-opacity:1" />
          <path
             id="path851"
             d="m 53.01,50 c 0,2.209139 -1.790861,4 -4,4 -2.209139,0 -4,-1.790861 -4,-4 0,-2.209139 1.790861,-4 4,-4 0.614938,-0.0022 1.221594,0.141785 1.77,0.42 1.366514,0.668992 2.232056,2.058518 2.23,3.58 z"
             fill="#efc319"
             style="fill:#313131;fill-opacity:1" />
          <g
             fill="#b08f46"
             id="g857"
             style="fill:#1f1f1f;fill-opacity:1">
            <path
               id="path853"
               d="m 21,19 c -3.313709,0 -6,-2.686292 -6,-6 0,-3.3137085 2.686291,-6 6,-6 3.313708,0 6,2.6862915 6,6 -0.0033,3.312338 -2.687662,5.996693 -6,6 z M 21,9 c -2.209139,0 -4,1.790861 -4,4 0,2.209139 1.790861,4 4,4 2.209139,0 4,-1.790861 4,-4 0,-1.060866 -0.421427,-2.078282 -1.171573,-2.828427 C 23.078282,9.4214274 22.060866,9 21,9 Z"
               style="fill:#1f1f1f;fill-opacity:1" />
            <path
               id="path855"
               d="m 37,19 c -3.313708,0 -6,-2.686292 -6,-6 0,-3.3137085 2.686292,-6 6,-6 3.313708,0 6,2.6862915 6,6 -0.0033,3.312338 -2.687662,5.996693 -6,6 z M 37,9 c -2.209139,0 -4,1.790861 -4,4 0,2.209139 1.790861,4 4,4 2.209139,0 4,-1.790861 4,-4 0,-1.060866 -0.421427,-2.078282 -1.171573,-2.828427 C 39.078282,9.4214274 38.060866,9 37,9 Z"
               style="fill:#1f1f1f;fill-opacity:1" />
          </g>
        </g>
        <g
           id="g917"
           transform="matrix(1.2791326,0,0,1.2791326,77.138474,72.802708)"
           style="fill:#313131;fill-opacity:1">
          <g
             id="g915"
             transform="translate(0,1.6547672)"
             style="fill:#313131;fill-opacity:1">
            <path
               d="m 26.239,25.779 h -3.151 v 4.681 h 3.151 c 0.636,0 1.226,-0.258 1.64,-0.691 0.433,-0.415 0.691,-1.004 0.691,-1.659 0.001,-1.281 -1.05,-2.331 -2.331,-2.331 z"
               id="path909"
               style="fill:#313131;fill-opacity:1" />
            <path
               d="M 25,7.5 C 15.35,7.5 7.5,15.35 7.5,25 7.5,34.65 15.35,42.5 25,42.5 34.65,42.5 42.5,34.649 42.5,25 42.5,15.351 34.649,7.5 25,7.5 Z m 3.561,25.604 h -2.064 v 3.244 h -2.165 v -3.244 h -1.189 v 3.244 h -2.175 v -3.244 h -3.824 v -2.036 h 2.11 v -12.2 h -2.11 v -2.036 h 3.824 v -3.179 h 2.175 v 3.179 h 1.189 v -3.179 h 2.165 v 3.179 h 1.88 c 1.05,0 2.018,0.433 2.709,1.124 0.691,0.691 1.124,1.659 1.124,2.709 0,2.055 -1.622,3.732 -3.649,3.824 2.377,0 4.294,1.935 4.294,4.312 0,2.368 -1.916,4.303 -4.294,4.303 z"
               id="path911"
               style="fill:#313131;fill-opacity:1" />
            <path
               d="m 27.631,22.904 c 0.378,-0.378 0.608,-0.885 0.608,-1.456 0,-1.133 -0.921,-2.055 -2.055,-2.055 h -3.096 v 4.119 h 3.096 c 0.562,0 1.078,-0.24 1.447,-0.608 z"
               id="path913"
               style="fill:#313131;fill-opacity:1" />
          </g>
        </g>
      </g>
    </g>
  </g>
</svg>
